<svg version="1" xmlns="http://www.w3.org/2000/svg" width="933.333" height="933.333" viewBox="0 0 700.000000 700.000000"><path d="M45 350v305h610V45H45v305zm200-200v95H55V55h190v95zm200 0v95H255V55h190v95zm200 0v95H455V55h190v95zM245 350v95H55V255h190v95zm200 0v95H255V255h190v95zm200 0v95H455V255h190v95zM245 550v95H55V455h190v95zm200 0v95H255V455h190v95zm200 0v95H455V455h190v95z"/><path d="M332.5 72c-29.6 6.6-52.2 28.9-60.1 59-2.9 11.2-2.7 29.8.5 40.5 8.2 27.7 28.9 47.9 57.1 56 9 2.6 29.7 2.6 39.5.1 29-7.6 50.1-29 58.3-59.1 2.3-8.4 2.2-29.7-.2-38.5-11.4-41.8-53.3-67.3-95.1-58zM534 271.6c-29.4 6.3-53.3 28.5-61.1 57-4 14.9-3.3 33.6 2 48.7 8.4 24.1 29.7 43.4 55.6 50.3 9.6 2.6 29.2 2.6 39 0 30.5-8.2 53.1-32.3 59-63 1.8-9 1.3-26-1-34.6-6.2-23.5-22.8-43-44.9-53-3.7-1.6-6.6-2.7-6.6-2.3 0 .3-.6.1-1.2-.4-4.5-3.5-29.4-5.2-40.8-2.7zM132.3 472c-21.9 5-41.7 19.9-52.3 39.5-7.4 13.6-10 24.7-9.5 41 .4 12.6 1.9 19.8 6.8 30.7 10.3 23.1 34.3 41.7 58.7 45.6 8.8 1.4 26.1.7 33.5-1.2 27.1-7.4 47.9-27 56.7-53.6 2.8-8.7 3.1-10.7 3.2-23 0-10.1-.4-15.3-1.8-20.5-7.4-28.2-27.5-48.7-56.1-57.5-9.9-3.1-28-3.5-39.2-1zM339 470.6c-21.4 3.3-41.9 15.8-54 32.9-16.9 23.8-19.6 54.6-6.9 81.1 10.3 21.7 29.1 36.8 54.4 43.5 7.5 2.1 28.3 1.7 37-.5 28.1-7.3 48.8-27.6 57.6-56.6 3.1-10 3.3-31 .5-41-8.1-28.2-27.9-48.4-56.1-57-6.7-2.1-25.5-3.4-32.5-2.4zM535 471.5c-30.5 5.8-54.7 28.6-62.6 59-1.9 7.4-2.5 25.3-1.2 33.3 3.6 21.2 17 41.4 35.3 53.3 6.3 4.1 16.4 8.5 24 10.5 7.4 2 25 2.6 33.5 1.1 32-5.3 58.1-31.3 64.5-64.2 1.9-9.5 1.2-27-1.3-35.5-8.5-28.4-27.8-47.7-56.2-56.2-8.1-2.4-26.8-3.1-36-1.3z"/></svg>